<svg xmlns="http://www.w3.org/2000/svg" viewBox="0 0 1579.4 1579.4" fill="none">
  <rect width="1579.4" height="1579.4" fill="#000000"/>
  <path fill="#FFFFFF" d="M557.3,671.7l-119.8-61c-9.4,18.4-17.3,37.7-23.7,57.4l127.9,41.4C545.9,696.5,551.1,683.8,557.3,671.7z"/>
  <path fill="#FFFFFF" d="M659,564.2l66.3,114.3c9.7-5.6,20.1-9.9,30.8-12.8l-34.3-127.6c8.7-2.3,17.6-4.3,26.6-5.7l-21.1-132.8c-20.4,3.2-40.7,8.1-60.3,14.5l41,125.8c-13.1,4.3-25.8,9.6-38,15.8L609.8,438c-18.3,9.4-36.1,20.3-52.7,32.5L636.3,579C643.6,573.7,651.2,568.8,659,564.2z"/>
  <path fill="#FFFFFF" d="M1015.1,658.9l-114.3,66.4c5.6,9.7,10,20.1,12.9,30.8l127.6-34.4c2.4,8.7,4.3,17.6,5.7,26.5l132.8-21.1c-3.2-20.4-8.1-40.7-14.6-60.3L1039.5,708c-4.3-13.1-9.6-25.8-15.8-38l117.7-60.4c-9.4-18.3-20.3-36.1-32.5-52.7l-108.5,79.3C1005.6,643.5,1010.5,651.1,1015.1,658.9z"/>
  <path fill="#FFFFFF" d="M968.5,437.4c-18.4-9.4-37.7-17.3-57.4-23.7l-41.3,127.9c12.9,4.2,25.6,9.4,37.8,15.6L968.5,437.4z"/>
  <path fill="#FFFFFF" d="M920.7,561.9l-67.1,116.5c9.7,5.6,18.7,12.5,26.6,20.4l188.2-188.9c-14.6-14.6-30.5-28.1-47.1-40.2l-77.6,107.1C936.3,571.4,928.7,566.4,920.7,561.9z"/>
  <path fill="#FFFFFF" d="M561.9,658.5l116.4,67.2c5.6-9.7,12.5-18.7,20.4-26.7L510,510.7c-14.6,14.6-28.1,30.5-40.2,47.1l107,77.7C571.5,642.9,566.5,650.6,561.9,658.5z"/>
  <path fill="#FFFFFF" d="M830.4,530.1l20.3-130.7c-20.1-3.1-40.6-4.7-61.1-4.7h-0.3v266.6h0.3c11.2,0,22.4,1.4,33.1,4.3l34.5-129.9C848.4,533.3,839.5,531.5,830.4,530.1z"/>
  <path fill="#FFFFFF" d="M665.6,756.6L535.7,722c-2.3,8.8-4.2,17.8-5.6,26.8l-130.7-20.4c-3.1,20.1-4.7,40.8-4.7,61.3h266.6C661.3,778.4,662.8,767.3,665.6,756.6z"/>
  <path fill="#FFFFFF" d="M1022.1,907.7l119.8,61c9.4-18.4,17.3-37.7,23.7-57.4l-127.9-41.4C1033.5,882.9,1028.3,895.6,1022.1,907.7z"/>
  <path fill="#FFFFFF" d="M920.3,1015.1L854,900.8c-9.7,5.6-20.1,9.9-30.8,12.8l34.3,127.6c-8.7,2.3-17.6,4.3-26.6,5.7l21.1,132.8c20.4-3.2,40.7-8.1,60.3-14.5l-41-125.8c13.1-4.3,25.8-9.6,38-15.8l60.3,117.7c18.3-9.4,36.1-20.3,52.7-32.5l-79.2-108.6C935.8,1005.7,928.2,1010.6,920.3,1015.1z"/>
  <path fill="#FFFFFF" d="M564.3,920.5L678.6,854c-5.6-9.7-10-20.1-12.9-30.8l-127.6,34.4c-2.4-8.7-4.3-17.6-5.7-26.5l-132.8,21.1c3.2,20.4,8.1,40.7,14.6,60.3l125.7-41.1c4.3,13,9.6,25.8,15.8,38l-117.7,60.4c9.4,18.3,20.3,36.1,32.5,52.7l108.5-79.3C573.8,935.9,568.9,928.3,564.3,920.5z"/>
  <path fill="#FFFFFF" d="M610.9,1142c18.4,9.4,37.7,17.3,57.4,23.7l41.3-127.9c-12.9-4.2-25.6-9.4-37.8-15.6L610.9,1142z"/>
  <path fill="#FFFFFF" d="M658.6,1017.5L725.7,901c-9.7-5.6-18.7-12.5-26.6-20.4l-188.2,188.9c14.6,14.6,30.5,28.1,47.1,40.2l77.6-107.1C643.1,1008,650.7,1013,658.6,1017.5z"/>
  <path fill="#FFFFFF" d="M1017.5,920.9l-116.4-67.2c-5.6,9.7-12.5,18.7-20.4,26.7l188.8,188.2c14.6-14.6,28.1-30.5,40.2-47.1l-107-77.7C1007.9,936.5,1012.9,928.8,1017.5,920.9z"/>
  <path fill="#FFFFFF" d="M749,1049.2l-20.3,130.7c20.1,3.1,40.6,4.7,61.1,4.7h0.3V918h-0.3c-11.2,0-22.4-1.4-33.1-4.3l-34.5,129.9C731,1046,739.9,1047.9,749,1049.2z"/>
  <path fill="#FFFFFF" d="M913.8,822.8l129.9,34.5c2.3-8.8,4.2-17.8,5.6-26.8l130.7,20.4c3.1-20.1,4.7-40.8,4.7-61.3H918C918.1,801,916.6,812.1,913.8,822.8z"/>
  <path fill="#FFFFFF" d="M789.7,789.5c-22.1,0-43,4.3-62.3,11.9c4.5,5,8.5,10.4,12,16.1l0,0c17.9-10.1,41.5-18.5,62.3-18.5c22.9,0,43.9,6.4,63.5,18.5l0,0l16.9-28.7C857.1,799.4,824.3,789.5,789.7,789.5z"/>
  <path fill="#FFFFFF" d="M789.7,850.8c-15.4,0-29.7,3.4-42.7,9.4c2.9,3.6,5.4,7.5,7.5,11.6c10.5-5.3,22.5-8.5,35.2-8.5c10.2,0,19.8,2.1,28.7,5.8c3.5-3.9,7.5-7.4,12-10.4C819.2,854.2,804.8,850.8,789.7,850.8z"/>
</svg>